<svg width="100" height="100" viewBox="0 0 100 100" fill="none" xmlns="http://www.w3.org/2000/svg">
<path d="M100 50C100 77.6142 77.6142 100 50 100C22.3858 100 0 77.6142 0 50C0 22.3858 22.3858 0 50 0C77.6142 0 100 22.3858 100 50ZM16.3863 50C16.3863 68.5643 31.4357 83.6137 50 83.6137C68.5643 83.6137 83.6137 68.5643 83.6137 50C83.6137 31.4357 68.5643 16.3863 50 16.3863C31.4357 16.3863 16.3863 31.4357 16.3863 50Z" fill="#D9D9D9" fill-opacity="0.5"/>
<path d="M4.37114e-06 50C4.94516e-06 43.4339 1.29329 36.9321 3.80603 30.8658C6.31876 24.7995 10.0017 19.2876 14.6447 14.6447C19.2876 10.0017 24.7996 6.31875 30.8658 3.80602C36.9321 1.29328 43.4339 -4.94516e-06 50 -4.37114e-06L50 16.2089C45.5625 16.2089 41.1684 17.0829 37.0687 18.7811C32.969 20.4792 29.2439 22.9683 26.1061 26.1061C22.9683 29.2439 20.4793 32.969 18.7811 37.0687C17.0829 41.1684 16.2089 45.5625 16.2089 50L4.37114e-06 50Z" fill="white"/>
</svg>
